<?xml version="1.0" encoding="UTF-8"?>
<svg id="_레이어_2" data-name="레이어 2" xmlns="http://www.w3.org/2000/svg" xmlns:xlink="http://www.w3.org/1999/xlink" viewBox="0 0 362.31 139.82">
  <defs>
    <style>
      .cls-1 {
        fill: #fff;
      }

      .cls-2 {
        stroke: #fff;
      }

      .cls-2, .cls-3 {
        fill: none;
        stroke-miterlimit: 10;
      }

      .cls-3 {
        stroke: url(#_무제_그라디언트_26);
        stroke-linecap: round;
        stroke-width: 2px;
      }

      .cls-4 {
        fill: url(#_무제_그라디언트_26-3);
      }

      .cls-5 {
        fill: url(#_무제_그라디언트_26-2);
      }
    </style>
    <linearGradient id="_무제_그라디언트_26" data-name="무제 그라디언트 26" x1="134.47" y1="-17.59" x2="234.7" y2="156.01" gradientUnits="userSpaceOnUse">
      <stop offset="0" stop-color="#f0c9a4"/>
      <stop offset=".51" stop-color="#d7a966"/>
      <stop offset="1" stop-color="#9f5c41"/>
    </linearGradient>
    <linearGradient id="_무제_그라디언트_26-2" data-name="무제 그라디언트 26" x1="178.7" y1="2.96" x2="188.95" y2="20.7" xlink:href="#_무제_그라디언트_26"/>
    <linearGradient id="_무제_그라디언트_26-3" data-name="무제 그라디언트 26" x1="177.58" y1="18.69" x2="190.32" y2="40.75" xlink:href="#_무제_그라디언트_26"/>
  </defs>
  <g id="_레이어_1-2" data-name="레이어 1">
    <g>
      <g>
        <g>
          <path class="cls-3" d="M210.16,33.82h110.85c0,4.61,3.74,8.35,8.35,8.35v9.2c5.16,4.23,8.45,10.65,8.45,17.84,0,6.37-2.58,12.13-6.75,16.3-.54.54-1.11,1.05-1.7,1.53v9.2c-4.61,0-8.35,3.74-8.35,8.35H48.16c0-4.61-3.74-8.35-8.35-8.35v-8.06c-6.02-4.16-9.97-11.11-9.97-18.98,0-6.37,2.58-12.13,6.75-16.31.99-.99,2.06-1.88,3.22-2.68v-8.06c4.61,0,8.35-3.74,8.35-8.35h109.19"/>
          <g>
            <path class="cls-5" d="M183.82,0c0,11.02-6.54,11.83-6.54,11.83,0,0,6.54.81,6.54,11.83,0-11.02,6.54-11.83,6.54-11.83,0,0-6.54-.81-6.54-11.83Z"/>
            <path class="cls-4" d="M196.81,29.5c0,7.17-5.81,12.98-12.98,12.98s-12.98-5.81-12.98-12.98c0-3.51,1.39-6.69,3.65-9.02-.29.93-.45,1.91-.45,2.94,0,5.4,4.38,9.78,9.78,9.78s9.78-4.38,9.78-9.78c0-1.02-.16-2.01-.45-2.94,2.26,2.33,3.65,5.52,3.65,9.02Z"/>
          </g>
        </g>
        <g>
          <path class="cls-1" d="M60.1,60.56c0,7.86-7.81,8.66-7.81,8.66,0,0,7.81.8,7.81,8.66,0-7.86,7.81-8.66,7.81-8.66,0,0-7.81-.8-7.81-8.66Z"/>
          <path class="cls-1" d="M307.54,60.56c0,7.86-7.81,8.66-7.81,8.66,0,0,7.81.8,7.81,8.66,0-7.86,7.81-8.66,7.81-8.66,0,0-7.81-.8-7.81-8.66Z"/>
        </g>
      </g>
      <g>
        <circle class="cls-1" cx="47.29" cy="20.39" r="1.43"/>
        <circle class="cls-1" cx="142.75" cy="5.09" r="2.19"/>
        <circle class="cls-1" cx="333.7" cy="25.22" r="1.56"/>
        <circle class="cls-1" cx="349.73" cy="83.05" r="1.72"/>
        <circle class="cls-1" cx="45.87" cy="122.74" r="2.14"/>
        <circle class="cls-1" cx="6.1" cy="87.25" r="1.27"/>
        <path class="cls-1" d="M23.71,98.25c0,5.77-5.74,6.36-5.74,6.36,0,0,5.74.59,5.74,6.36,0-5.77,5.74-6.36,5.74-6.36,0,0-5.74-.59-5.74-6.36Z"/>
        <path class="cls-1" d="M10.38,58.87c0,3.03-3.02,3.34-3.02,3.34,0,0,3.02.31,3.02,3.34,0-3.03,3.02-3.34,3.02-3.34,0,0-3.02-.31-3.02-3.34Z"/>
        <path class="cls-1" d="M93.53,15.51c0,3.03-3.02,3.34-3.02,3.34,0,0,3.02.31,3.02,3.34,0-3.03,3.02-3.34,3.02-3.34,0,0-3.02-.31-3.02-3.34Z"/>
        <path class="cls-1" d="M286.96,9.68c0,6.58-6.54,7.25-6.54,7.25,0,0,6.54.67,6.54,7.25,0-6.58,6.54-7.25,6.54-7.25,0,0-6.54-.67-6.54-7.25Z"/>
        <path class="cls-1" d="M356.17,52.5c0,2.89-2.88,3.19-2.88,3.19,0,0,2.88.3,2.88,3.19,0-2.89,2.88-3.19,2.88-3.19,0,0-2.88-.3-2.88-3.19Z"/>
        <path class="cls-1" d="M294.86,133.45c0,2.89-2.88,3.19-2.88,3.19,0,0,2.88.3,2.88,3.19,0-2.89,2.88-3.19,2.88-3.19,0,0-2.88-.3-2.88-3.19Z"/>
        <g>
          <circle class="cls-1" cx="21.28" cy="42.26" r="1.36"/>
          <circle class="cls-1" cx="9.93" cy="40.44" r="1.36"/>
          <circle class="cls-1" cx="1.36" cy="25.58" r="1.36"/>
          <circle class="cls-1" cx="10.38" cy="13.19" r="1.36"/>
          <circle class="cls-1" cx="17.97" cy="21.76" r="1.36"/>
          <circle class="cls-1" cx="27.25" cy="23.74" r="1.36"/>
          <polyline class="cls-2" points="27.25 23.74 17.97 21.76 10.38 13.19 1.36 25.58 9.93 40.64 21.28 42.26"/>
        </g>
        <g>
          <circle class="cls-1" cx="341.04" cy="134.5" r="1.36"/>
          <circle class="cls-1" cx="352.39" cy="132.69" r="1.36"/>
          <circle class="cls-1" cx="360.95" cy="117.83" r="1.36"/>
          <circle class="cls-1" cx="351.93" cy="105.44" r="1.36"/>
          <circle class="cls-1" cx="344.34" cy="114" r="1.36"/>
          <circle class="cls-1" cx="335.07" cy="115.98" r="1.36"/>
          <polyline class="cls-2" points="335.07 115.98 344.34 114 351.93 105.44 360.95 117.83 352.39 132.88 341.04 134.5"/>
        </g>
      </g>
      <g>
        <circle class="cls-1" cx="101.68" cy="121.36" r="1.39"/>
        <circle class="cls-1" cx="115.37" cy="121.36" r="1.39"/>
        <circle class="cls-1" cx="129.06" cy="121.36" r="1.39"/>
        <circle class="cls-1" cx="142.75" cy="121.36" r="1.39"/>
        <circle class="cls-1" cx="156.44" cy="121.36" r="1.39"/>
        <circle class="cls-1" cx="170.13" cy="121.36" r="1.39"/>
        <circle class="cls-1" cx="183.82" cy="121.36" r="1.39"/>
        <circle class="cls-1" cx="197.52" cy="121.36" r="1.39"/>
        <circle class="cls-1" cx="211.21" cy="121.36" r="1.39"/>
        <circle class="cls-1" cx="224.9" cy="121.36" r="1.39"/>
        <circle class="cls-1" cx="238.59" cy="121.36" r="1.39"/>
        <circle class="cls-1" cx="252.28" cy="121.36" r="1.39"/>
        <circle class="cls-1" cx="265.97" cy="121.36" r="1.39"/>
      </g>
    </g>
  </g>
</svg>