<svg xmlns="http://www.w3.org/2000/svg" viewBox="0 0 64 64" width="64" height="64">
  <defs>
    <linearGradient id="moonGradient" x1="0%" y1="0%" x2="100%" y2="100%">
      <stop offset="0%" style="stop-color:#f0c9a4;stop-opacity:1" />
      <stop offset="50%" style="stop-color:#d7a966;stop-opacity:1" />
      <stop offset="100%" style="stop-color:#9f5c41;stop-opacity:1" />
    </linearGradient>
    <filter id="glow">
      <feGaussianBlur stdDeviation="1.5" result="coloredBlur"/>
      <feMerge>
        <feMergeNode in="coloredBlur"/>
        <feMergeNode in="SourceGraphic"/>
      </feMerge>
    </filter>
  </defs>
  
  <!-- 배경 원 -->
  <circle cx="32" cy="32" r="30" fill="#0c0820" stroke="url(#moonGradient)" stroke-width="2"/>
  
  <!-- 초승달 -->
  <path d="M 32 12 A 20 20 0 0 1 32 52 A 15 15 0 0 0 32 22 Z" 
        fill="url(#moonGradient)" 
        filter="url(#glow)"
        opacity="0.95"/>
  
  <!-- 별들 -->
  <path d="M 20 18 L 21 20 L 23 20 L 21.5 21.5 L 22 24 L 20 22.5 L 18 24 L 18.5 21.5 L 17 20 L 19 20 Z" 
        fill="#d7a966" opacity="0.9"/>
  <path d="M 44 18 L 45 20 L 47 20 L 45.5 21.5 L 46 24 L 44 22.5 L 42 24 L 42.5 21.5 L 41 20 L 43 20 Z" 
        fill="#d7a966" opacity="0.9"/>
  <path d="M 20 46 L 21 48 L 23 48 L 21.5 49.5 L 22 52 L 20 50.5 L 18 52 L 18.5 49.5 L 17 48 L 19 48 Z" 
        fill="#d7a966" opacity="0.9"/>
  <path d="M 44 46 L 45 48 L 47 48 L 45.5 49.5 L 46 52 L 44 50.5 L 42 52 L 42.5 49.5 L 41 48 L 43 48 Z" 
        fill="#d7a966" opacity="0.9"/>
</svg>
